<?xml version="1.0" standalone="no"?>
<!DOCTYPE svg PUBLIC "-//W3C//DTD SVG 20010904//EN"
 "http://www.w3.org/TR/2001/REC-SVG-20010904/DTD/svg10.dtd">
<svg version="1.0" xmlns="http://www.w3.org/2000/svg"
 width="400.000000pt" height="400.000000pt" viewBox="0 0 400.000000 400.000000"
 preserveAspectRatio="xMidYMid meet">
<metadata>
Created by potrace 1.14, written by Peter Selinger 2001-2017
</metadata>
<g transform="translate(0.000000,400.000000) scale(0.100000,-0.100000)"
fill="#000000" stroke="none">
<path d="M1946 3850 c-26 -82 -67 -189 -90 -237 -59 -125 -147 -287 -157 -291
-5 -2 -9 -9 -9 -16 0 -7 -11 -25 -25 -40 -13 -14 -25 -29 -25 -31 0 -3 0 -10
0 -16 0 -5 -5 -7 -12 -3 -7 4 -8 3 -4 -4 9 -15 -124 -213 -138 -205 -5 3 -6 1
-3 -4 4 -6 -52 -93 -124 -194 -179 -253 -194 -273 -253 -361 -29 -43 -57 -74
-61 -70 -5 4 -5 1 -1 -5 4 -7 -6 -31 -22 -55 -16 -24 -37 -58 -46 -76 -10 -19
-21 -30 -28 -26 -6 4 -8 3 -4 -4 3 -6 -18 -59 -48 -119 -144 -288 -204 -543
-193 -830 13 -377 124 -651 357 -883 142 -143 318 -245 526 -305 147 -43 198
-47 461 -42 211 4 259 8 324 26 482 133 800 461 899 927 28 129 38 392 20 531
-24 193 -99 421 -201 611 -27 50 -47 92 -44 92 3 0 -3 9 -13 20 -10 11 -25 33
-33 48 -7 15 -21 38 -31 51 -10 13 -16 27 -13 31 3 4 -2 10 -10 13 -8 3 -22
21 -32 40 -10 18 -81 122 -158 230 -280 393 -402 574 -397 589 1 4 -2 8 -7 8
-24 0 -198 333 -256 490 -21 58 -49 139 -61 180 -12 41 -25 75 -30 77 -5 2
-31 -64 -58 -147z"/>
</g>
</svg>
